<svg width="75" height="71" viewBox="0 0 75 71" fill="none" xmlns="http://www.w3.org/2000/svg">
<path fill-rule="evenodd" clip-rule="evenodd" d="M74.1538 20.2335C74.0946 20.1044 74.0137 19.9867 73.9145 19.8857L71.692 17.5615C71.3738 17.2423 70.906 17.1257 70.476 17.2583L66.4671 18.4794L61.7705 13.4773L72.3127 7.58253C72.927 7.29853 73.1956 6.56821 72.9125 5.95158C72.8534 5.82253 72.7725 5.70485 72.6733 5.60379L69.7128 2.63116C69.3901 2.31979 68.9238 2.2099 68.4967 2.34485L55.1366 6.40379L50.6413 1.61221C49.4956 0.282109 47.6306 -0.162312 46.0118 0.509056H45.9363C44.7158 1.01348 43.7465 1.98674 43.2441 3.21221C43.1175 3.53221 43.0275 3.86548 42.9757 4.2059L42.4641 4.02906C41.8018 3.81516 41.0921 4.18085 40.8791 4.8459C40.666 5.51095 41.0302 6.22358 41.6926 6.43748C42.3383 6.648 42.9841 6.88379 43.6299 7.128C43.8243 7.43327 44.0522 7.71579 44.3092 7.97011L49.0478 12.4838L47.6891 16.9891C34.4007 7.47137 15.9441 10.5722 6.4652 23.915C-3.01373 37.2577 0.0744867 55.7895 13.3629 65.3072C26.6513 74.8248 45.1079 71.724 54.5868 58.3813C62.1458 47.7411 61.882 33.388 53.9372 23.0352L56.0843 19.1446L61.066 23.8604L59.8667 27.8436C59.7222 28.2813 59.8359 28.7634 60.1602 29.0899C60.1602 29.0899 62.6176 31.532 62.6763 31.6162C63.2573 31.9543 64.0014 31.7556 64.3383 31.1722L64.3465 31.1579L64.3536 31.1446L67.6328 25.1067L73.5539 21.8646C74.1682 21.5804 74.4368 20.8501 74.1538 20.2335ZM11.5337 21.8981C16.5899 16.8236 23.448 13.9758 30.5969 13.9823C31.1561 13.9823 31.715 13.9992 32.2742 14.0328C37.0295 18.4371 35.6289 22.4539 32.442 26.075C30.5612 28.0777 28.5436 29.9461 26.4035 31.6665C23.3088 34.3107 20.4237 36.7781 19.3334 39.2455C18.0419 42.176 18.9896 44.8286 24.2062 47.1444C26.8144 48.3065 28.2318 49.2076 28.7853 49.8897C28.7876 49.8924 28.7899 49.895 28.7921 49.8973L28.798 49.9031L28.8019 49.9065C28.8035 49.9079 28.8052 49.9092 28.8068 49.9105C28.8077 49.9112 28.8087 49.9119 28.8097 49.9126C28.7925 49.9179 28.7751 49.9236 28.7518 49.9318C27.4887 50.4147 26.1443 50.6463 24.7932 50.6139C18.4844 50.8827 13.987 46.8434 10.4932 43.7054L10.4686 43.6834L10.4558 43.6719C7.94548 41.4286 5.86059 39.5654 3.69212 39.5486C4.05107 32.8962 6.84366 26.6107 11.5337 21.8981ZM57.661 41.0813H57.6526C57.652 39.9524 57.5819 38.8246 57.4429 37.7044C53.9792 39.616 53.8198 40.9297 53.6102 42.6897C53.2747 45.4771 52.8386 49.0981 45.0976 55.5823C43.0994 57.1143 41.3944 58.9973 40.0655 61.1402C39.0855 62.8796 38.722 64.9013 39.034 66.875C50.1429 63.2236 57.6572 52.8181 57.661 41.0813ZM56.0926 31.9697C56.4675 33.0299 56.7755 34.1128 57.0152 35.2118C51.7399 37.9065 51.5051 39.8265 51.1864 42.4455L51.1859 42.4496C50.9008 44.807 50.5281 47.8889 43.5377 53.7465C41.2973 55.4676 39.3925 57.5886 37.9185 60.0034C36.6335 62.2842 36.1881 64.9461 36.6605 67.5234C22.1118 70.8627 7.62174 61.7276 4.29597 47.1196C3.91563 45.4488 3.6938 43.7457 3.63341 42.0328C4.91601 42.0328 6.56327 43.5052 8.57519 45.3036L8.81643 45.5192C12.6576 48.9634 17.5722 53.3592 24.8939 53.0981C26.619 53.128 28.3318 52.8013 29.9259 52.1381C30.5979 51.8398 31.1066 51.2615 31.3181 50.555C31.4968 49.767 31.2701 48.9415 30.7143 48.3571C29.9259 47.3886 28.1983 46.2434 25.2293 44.9128C21.6817 43.3381 20.9102 41.8055 21.6063 40.2392C22.3671 38.4515 24.6602 36.4421 27.2208 34.1983L27.2213 34.1979C27.4831 33.9685 27.7477 33.7366 28.0137 33.5023C30.2488 31.6886 32.3535 29.719 34.3122 27.6076C37.8179 23.5992 39.621 19.2286 36.0567 14.4455C40.0179 15.2585 43.745 16.96 46.9595 19.4223L45.0305 25.8139C44.8881 26.2518 45.0014 26.7328 45.324 27.0602C45.324 27.0602 48.4523 30.176 48.5529 30.235C49.1339 30.5731 49.8781 30.3743 50.215 29.791L50.2224 29.7778L50.2303 29.7634L52.6708 25.3339C54.1115 27.3764 55.263 29.6097 56.0926 31.9697ZM66.2574 23.1023L67.3393 22.5634L71.1133 20.4665L70.4843 19.8349L66.4503 21.056C66.0081 21.1926 65.5269 21.0653 65.2091 20.7276C65.2091 20.7276 58.7932 13.8728 58.7429 13.7802L58.7276 13.7526C58.4057 13.1608 58.6229 12.419 59.2125 12.096L69.8637 6.21811L68.5638 4.91285L55.1449 8.98021C54.7011 9.11474 54.2197 8.984 53.9037 8.64337L48.8716 3.30442C48.3919 2.73285 47.6038 2.5299 46.9091 2.79916H46.8672C46.2562 3.06421 45.7677 3.55158 45.5002 4.16337C45.2016 4.86948 45.3953 5.68864 45.9782 6.18442L51.2451 11.1613C51.6288 11.4752 51.7848 11.9914 51.6393 12.4665L47.5801 25.8981L48.88 27.2034C48.88 27.2034 54.8346 16.4328 54.9185 16.3402C54.9294 16.3282 54.9403 16.3166 54.9516 16.3051C55.4223 15.824 56.1922 15.8171 56.6713 16.2897L63.2885 22.5465C63.6688 22.8592 63.8244 23.3707 63.6827 23.8434L62.4666 27.8771L63.0788 28.5507L65.1671 24.7613L65.7039 23.6665C65.8203 23.4215 66.0152 23.223 66.2574 23.1023Z" fill="#1DA1F2"/>
</svg>
